<svg xmlns="http://www.w3.org/2000/svg" width="1280" height="640" viewBox="0 0 1280 640">
  <defs>
    <!-- Background gradient -->
    <linearGradient id="bg" x1="0%" y1="0%" x2="100%" y2="100%">
      <stop offset="0%" stop-color="#0f172a"/>
      <stop offset="50%" stop-color="#131c35"/>
      <stop offset="100%" stop-color="#0c1222"/>
    </linearGradient>

    <!-- Accent gradients -->
    <linearGradient id="accent1" x1="0%" y1="0%" x2="100%" y2="100%">
      <stop offset="0%" stop-color="#6366f1"/>
      <stop offset="100%" stop-color="#8b5cf6"/>
    </linearGradient>
    <linearGradient id="accent2" x1="0%" y1="0%" x2="100%" y2="100%">
      <stop offset="0%" stop-color="#6366f1"/>
      <stop offset="100%" stop-color="#a78bfa"/>
    </linearGradient>
    <linearGradient id="cardGrad1" x1="0%" y1="0%" x2="0%" y2="100%">
      <stop offset="0%" stop-color="#1e293b"/>
      <stop offset="100%" stop-color="#1a2332"/>
    </linearGradient>
    <linearGradient id="cardGrad2" x1="0%" y1="0%" x2="0%" y2="100%">
      <stop offset="0%" stop-color="#1e293b" stop-opacity="0.9"/>
      <stop offset="100%" stop-color="#172033" stop-opacity="0.9"/>
    </linearGradient>
    <linearGradient id="glowGrad" x1="0%" y1="0%" x2="100%" y2="100%">
      <stop offset="0%" stop-color="#6366f1" stop-opacity="0.15"/>
      <stop offset="50%" stop-color="#8b5cf6" stop-opacity="0.08"/>
      <stop offset="100%" stop-color="#6366f1" stop-opacity="0"/>
    </linearGradient>
    <linearGradient id="shimmer" x1="0%" y1="0%" x2="100%" y2="0%">
      <stop offset="0%" stop-color="#6366f1"/>
      <stop offset="30%" stop-color="#818cf8"/>
      <stop offset="50%" stop-color="#c4b5fd"/>
      <stop offset="70%" stop-color="#818cf8"/>
      <stop offset="100%" stop-color="#6366f1"/>
    </linearGradient>
    <linearGradient id="starGold" x1="0%" y1="0%" x2="0%" y2="100%">
      <stop offset="0%" stop-color="#fbbf24"/>
      <stop offset="100%" stop-color="#f59e0b"/>
    </linearGradient>

    <!-- Glow filter -->
    <filter id="glow" x="-50%" y="-50%" width="200%" height="200%">
      <feGaussianBlur in="SourceGraphic" stdDeviation="20" result="blur"/>
      <feComposite in="SourceGraphic" in2="blur" operator="over"/>
    </filter>
    <filter id="softGlow" x="-50%" y="-50%" width="200%" height="200%">
      <feGaussianBlur in="SourceGraphic" stdDeviation="40"/>
    </filter>
    <filter id="cardShadow" x="-10%" y="-10%" width="130%" height="140%">
      <feDropShadow dx="0" dy="4" stdDeviation="8" flood-color="#000000" flood-opacity="0.3"/>
    </filter>
    <filter id="cardShadowDeep" x="-10%" y="-10%" width="130%" height="140%">
      <feDropShadow dx="0" dy="8" stdDeviation="16" flood-color="#000000" flood-opacity="0.4"/>
    </filter>
    <filter id="textGlow" x="-20%" y="-20%" width="140%" height="140%">
      <feGaussianBlur in="SourceGraphic" stdDeviation="8"/>
    </filter>

    <!-- Card border gradient -->
    <linearGradient id="cardBorder1" x1="0%" y1="0%" x2="100%" y2="100%">
      <stop offset="0%" stop-color="#6366f1" stop-opacity="0.4"/>
      <stop offset="100%" stop-color="#6366f1" stop-opacity="0.05"/>
    </linearGradient>
    <linearGradient id="cardBorder2" x1="100%" y1="0%" x2="0%" y2="100%">
      <stop offset="0%" stop-color="#8b5cf6" stop-opacity="0.3"/>
      <stop offset="100%" stop-color="#8b5cf6" stop-opacity="0.05"/>
    </linearGradient>
    <linearGradient id="cardBorder3" x1="0%" y1="100%" x2="100%" y2="0%">
      <stop offset="0%" stop-color="#a78bfa" stop-opacity="0.25"/>
      <stop offset="100%" stop-color="#6366f1" stop-opacity="0.05"/>
    </linearGradient>

    <!-- Clip paths for cards -->
    <clipPath id="roundCard1"><rect x="740" y="52" width="240" height="160" rx="12"/></clipPath>
    <clipPath id="roundCard2"><rect x="1000" y="52" width="240" height="200" rx="12"/></clipPath>
    <clipPath id="roundCard3"><rect x="740" y="232" width="240" height="200" rx="12"/></clipPath>
    <clipPath id="roundCard4"><rect x="1000" y="272" width="240" height="160" rx="12"/></clipPath>
    <clipPath id="roundCard5"><rect x="740" y="452" width="240" height="148" rx="12"/></clipPath>
    <clipPath id="roundCard6"><rect x="1000" y="452" width="240" height="148" rx="12"/></clipPath>
  </defs>

  <!-- ========== BACKGROUND ========== -->
  <rect width="1280" height="640" fill="url(#bg)"/>

  <!-- Subtle grid pattern -->
  <g opacity="0.03">
    <line x1="0" y1="80" x2="1280" y2="80" stroke="#94a3b8" stroke-width="1"/>
    <line x1="0" y1="160" x2="1280" y2="160" stroke="#94a3b8" stroke-width="1"/>
    <line x1="0" y1="240" x2="1280" y2="240" stroke="#94a3b8" stroke-width="1"/>
    <line x1="0" y1="320" x2="1280" y2="320" stroke="#94a3b8" stroke-width="1"/>
    <line x1="0" y1="400" x2="1280" y2="400" stroke="#94a3b8" stroke-width="1"/>
    <line x1="0" y1="480" x2="1280" y2="480" stroke="#94a3b8" stroke-width="1"/>
    <line x1="0" y1="560" x2="1280" y2="560" stroke="#94a3b8" stroke-width="1"/>
    <line x1="160" y1="0" x2="160" y2="640" stroke="#94a3b8" stroke-width="1"/>
    <line x1="320" y1="0" x2="320" y2="640" stroke="#94a3b8" stroke-width="1"/>
    <line x1="480" y1="0" x2="480" y2="640" stroke="#94a3b8" stroke-width="1"/>
    <line x1="640" y1="0" x2="640" y2="640" stroke="#94a3b8" stroke-width="1"/>
    <line x1="800" y1="0" x2="800" y2="640" stroke="#94a3b8" stroke-width="1"/>
    <line x1="960" y1="0" x2="960" y2="640" stroke="#94a3b8" stroke-width="1"/>
    <line x1="1120" y1="0" x2="1120" y2="640" stroke="#94a3b8" stroke-width="1"/>
  </g>

  <!-- Ambient glow orbs -->
  <ellipse cx="350" cy="320" rx="400" ry="350" fill="url(#glowGrad)" filter="url(#softGlow)" opacity="0.7"/>
  <ellipse cx="950" cy="300" rx="350" ry="300" fill="#6366f1" filter="url(#softGlow)" opacity="0.04"/>
  <circle cx="1100" cy="500" r="200" fill="#8b5cf6" filter="url(#softGlow)" opacity="0.03"/>

  <!-- ========== LEFT SIDE: BRANDING ========== -->

  <!-- Decorative large quote mark behind text -->
  <text x="30" y="280" font-family="Georgia, 'Times New Roman', serif" font-size="320" fill="#6366f1" opacity="0.04" font-weight="bold">"</text>

  <!-- Brand name -->
  <g filter="url(#textGlow)" opacity="0.5">
    <text x="80" y="260" font-family="'Inter', 'Segoe UI', system-ui, -apple-system, Helvetica, Arial, sans-serif" font-size="72" font-weight="800" fill="#6366f1">Praised</text>
  </g>
  <text x="80" y="260" font-family="'Inter', 'Segoe UI', system-ui, -apple-system, Helvetica, Arial, sans-serif" font-size="72" font-weight="800" fill="#f8fafc" letter-spacing="-1">Praised</text>

  <!-- Sparkle emoji next to brand -->
  <text x="378" y="260" font-size="56">&#x2728;</text>

  <!-- Accent bar under brand -->
  <rect x="80" y="278" width="80" height="4" rx="2" fill="url(#accent1)"/>

  <!-- Tagline -->
  <text x="80" y="330" font-family="'Inter', 'Segoe UI', system-ui, -apple-system, Helvetica, Arial, sans-serif" font-size="26" fill="#cbd5e1" font-weight="400" letter-spacing="-0.2">Turn happy customers into</text>
  <text x="80" y="366" font-family="'Inter', 'Segoe UI', system-ui, -apple-system, Helvetica, Arial, sans-serif" font-size="26" fill="#e2e8f0" font-weight="600" letter-spacing="-0.2">your best marketing.</text>

  <!-- CTA-style pill -->
  <rect x="80" y="410" width="220" height="48" rx="24" fill="url(#accent1)" opacity="0.9"/>
  <text x="130" y="441" font-family="'Inter', 'Segoe UI', system-ui, -apple-system, Helvetica, Arial, sans-serif" font-size="16" fill="#ffffff" font-weight="600" letter-spacing="0.5">Get Started Free</text>
  <path d="M268 429 L278 435 L268 441" stroke="#ffffff" stroke-width="2" fill="none" stroke-linecap="round" stroke-linejoin="round"/>

  <!-- Small trust line -->
  <g opacity="0.5">
    <text x="80" y="498" font-family="'Inter', 'Segoe UI', system-ui, -apple-system, Helvetica, Arial, sans-serif" font-size="13" fill="#94a3b8" letter-spacing="0.3">TRUSTED BY 2,000+ COMPANIES</text>
  </g>

  <!-- Tiny star rating row -->
  <g transform="translate(80, 512)">
    <polygon points="8,0 10.5,5 16,6 12,10 13,16 8,13 3,16 4,10 0,6 5.5,5" fill="url(#starGold)" opacity="0.8"/>
    <polygon points="28,0 30.5,5 36,6 32,10 33,16 28,13 23,16 24,10 20,6 25.5,5" fill="url(#starGold)" opacity="0.8"/>
    <polygon points="48,0 50.5,5 56,6 52,10 53,16 48,13 43,16 44,10 40,6 45.5,5" fill="url(#starGold)" opacity="0.8"/>
    <polygon points="68,0 70.5,5 76,6 72,10 73,16 68,13 63,16 64,10 60,6 65.5,5" fill="url(#starGold)" opacity="0.8"/>
    <polygon points="88,0 90.5,5 96,6 92,10 93,16 88,13 83,16 84,10 80,6 85.5,5" fill="url(#starGold)" opacity="0.8"/>
    <text x="108" y="14" font-family="'Inter', 'Segoe UI', system-ui, -apple-system, Helvetica, Arial, sans-serif" font-size="13" fill="#94a3b8">4.9/5 from 500+ reviews</text>
  </g>

  <!-- ========== RIGHT SIDE: TESTIMONIAL CARDS MASONRY ========== -->

  <!-- == Card 1: Top-left (featured) == -->
  <g filter="url(#cardShadowDeep)">
    <rect x="740" y="52" width="240" height="160" rx="12" fill="url(#cardGrad1)"/>
    <rect x="740" y="52" width="240" height="160" rx="12" fill="none" stroke="url(#cardBorder1)" stroke-width="1"/>
  </g>
  <!-- Quote icon -->
  <text x="760" y="94" font-family="Georgia, 'Times New Roman', serif" font-size="36" fill="#6366f1" opacity="0.6">"</text>
  <!-- Testimonial text lines -->
  <rect x="760" y="100" width="200" height="8" rx="4" fill="#94a3b8" opacity="0.25"/>
  <rect x="760" y="116" width="180" height="8" rx="4" fill="#94a3b8" opacity="0.2"/>
  <rect x="760" y="132" width="140" height="8" rx="4" fill="#94a3b8" opacity="0.15"/>
  <!-- Stars -->
  <g transform="translate(760, 156)">
    <polygon points="6,0 7.9,3.8 12,4.5 9,7.5 9.7,12 6,9.9 2.3,12 3,7.5 0,4.5 4.1,3.8" fill="#fbbf24"/>
    <polygon points="20,0 21.9,3.8 26,4.5 23,7.5 23.7,12 20,9.9 16.3,12 17,7.5 14,4.5 18.1,3.8" fill="#fbbf24"/>
    <polygon points="34,0 35.9,3.8 40,4.5 37,7.5 37.7,12 34,9.9 30.3,12 31,7.5 28,4.5 32.1,3.8" fill="#fbbf24"/>
    <polygon points="48,0 49.9,3.8 54,4.5 51,7.5 51.7,12 48,9.9 44.3,12 45,7.5 42,4.5 46.1,3.8" fill="#fbbf24"/>
    <polygon points="62,0 63.9,3.8 68,4.5 65,7.5 65.7,12 62,9.9 58.3,12 59,7.5 56,4.5 60.1,3.8" fill="#fbbf24"/>
  </g>
  <!-- Avatar + name -->
  <circle cx="776" cy="192" r="12" fill="#4f46e5"/>
  <text x="771" y="197" font-family="'Inter', 'Segoe UI', system-ui, -apple-system, Helvetica, Arial, sans-serif" font-size="11" fill="#e0e7ff" font-weight="700">S</text>
  <rect x="796" y="186" width="80" height="6" rx="3" fill="#94a3b8" opacity="0.3"/>
  <rect x="796" y="196" width="50" height="5" rx="2.5" fill="#94a3b8" opacity="0.15"/>

  <!-- == Card 2: Top-right (tall) == -->
  <g filter="url(#cardShadow)">
    <rect x="1000" y="52" width="240" height="200" rx="12" fill="url(#cardGrad1)"/>
    <rect x="1000" y="52" width="240" height="200" rx="12" fill="none" stroke="url(#cardBorder2)" stroke-width="1"/>
  </g>
  <!-- Featured badge -->
  <rect x="1016" y="68" width="70" height="22" rx="11" fill="#6366f1" opacity="0.2"/>
  <text x="1028" y="83" font-family="'Inter', 'Segoe UI', system-ui, -apple-system, Helvetica, Arial, sans-serif" font-size="10" fill="#818cf8" font-weight="600">FEATURED</text>
  <!-- Quote -->
  <text x="1020" y="124" font-family="Georgia, 'Times New Roman', serif" font-size="36" fill="#8b5cf6" opacity="0.5">"</text>
  <!-- Text lines -->
  <rect x="1020" y="128" width="200" height="8" rx="4" fill="#94a3b8" opacity="0.25"/>
  <rect x="1020" y="144" width="190" height="8" rx="4" fill="#94a3b8" opacity="0.2"/>
  <rect x="1020" y="160" width="170" height="8" rx="4" fill="#94a3b8" opacity="0.18"/>
  <rect x="1020" y="176" width="120" height="8" rx="4" fill="#94a3b8" opacity="0.13"/>
  <!-- Stars -->
  <g transform="translate(1020, 196)">
    <polygon points="6,0 7.9,3.8 12,4.5 9,7.5 9.7,12 6,9.9 2.3,12 3,7.5 0,4.5 4.1,3.8" fill="#fbbf24"/>
    <polygon points="20,0 21.9,3.8 26,4.5 23,7.5 23.7,12 20,9.9 16.3,12 17,7.5 14,4.5 18.1,3.8" fill="#fbbf24"/>
    <polygon points="34,0 35.9,3.8 40,4.5 37,7.5 37.7,12 34,9.9 30.3,12 31,7.5 28,4.5 32.1,3.8" fill="#fbbf24"/>
    <polygon points="48,0 49.9,3.8 54,4.5 51,7.5 51.7,12 48,9.9 44.3,12 45,7.5 42,4.5 46.1,3.8" fill="#fbbf24"/>
    <polygon points="62,0 63.9,3.8 68,4.5 65,7.5 65.7,12 62,9.9 58.3,12 59,7.5 56,4.5 60.1,3.8" fill="#fbbf24"/>
  </g>
  <!-- Avatar -->
  <circle cx="1036" cy="234" r="12" fill="#7c3aed"/>
  <text x="1031" y="239" font-family="'Inter', 'Segoe UI', system-ui, -apple-system, Helvetica, Arial, sans-serif" font-size="11" fill="#ede9fe" font-weight="700">A</text>
  <rect x="1056" y="228" width="80" height="6" rx="3" fill="#94a3b8" opacity="0.3"/>
  <rect x="1056" y="238" width="55" height="5" rx="2.5" fill="#94a3b8" opacity="0.15"/>

  <!-- == Card 3: Middle-left (tall) == -->
  <g filter="url(#cardShadowDeep)">
    <rect x="740" y="232" width="240" height="200" rx="12" fill="url(#cardGrad1)"/>
    <rect x="740" y="232" width="240" height="200" rx="12" fill="none" stroke="url(#cardBorder3)" stroke-width="1"/>
  </g>
  <!-- Indigo accent top bar -->
  <rect x="740" y="232" width="240" height="4" rx="2" fill="url(#accent2)" opacity="0.6"/>
  <!-- Quote icon -->
  <text x="760" y="278" font-family="Georgia, 'Times New Roman', serif" font-size="36" fill="#a78bfa" opacity="0.5">"</text>
  <!-- Real-ish testimonial text -->
  <text x="760" y="290" font-family="'Inter', 'Segoe UI', system-ui, -apple-system, Helvetica, Arial, sans-serif" font-size="12" fill="#cbd5e1" opacity="0.7" font-style="italic">Praised transformed how</text>
  <text x="760" y="308" font-family="'Inter', 'Segoe UI', system-ui, -apple-system, Helvetica, Arial, sans-serif" font-size="12" fill="#cbd5e1" opacity="0.7" font-style="italic">we collect and display</text>
  <text x="760" y="326" font-family="'Inter', 'Segoe UI', system-ui, -apple-system, Helvetica, Arial, sans-serif" font-size="12" fill="#cbd5e1" opacity="0.7" font-style="italic">customer testimonials.</text>
  <text x="760" y="344" font-family="'Inter', 'Segoe UI', system-ui, -apple-system, Helvetica, Arial, sans-serif" font-size="12" fill="#cbd5e1" opacity="0.5" font-style="italic">Conversion up 34%!</text>
  <!-- Stars -->
  <g transform="translate(760, 365)">
    <polygon points="6,0 7.9,3.8 12,4.5 9,7.5 9.7,12 6,9.9 2.3,12 3,7.5 0,4.5 4.1,3.8" fill="#fbbf24"/>
    <polygon points="20,0 21.9,3.8 26,4.5 23,7.5 23.7,12 20,9.9 16.3,12 17,7.5 14,4.5 18.1,3.8" fill="#fbbf24"/>
    <polygon points="34,0 35.9,3.8 40,4.5 37,7.5 37.7,12 34,9.9 30.3,12 31,7.5 28,4.5 32.1,3.8" fill="#fbbf24"/>
    <polygon points="48,0 49.9,3.8 54,4.5 51,7.5 51.7,12 48,9.9 44.3,12 45,7.5 42,4.5 46.1,3.8" fill="#fbbf24"/>
    <polygon points="62,0 63.9,3.8 68,4.5 65,7.5 65.7,12 62,9.9 58.3,12 59,7.5 56,4.5 60.1,3.8" fill="#fbbf24"/>
  </g>
  <!-- Avatar + name -->
  <circle cx="776" cy="406" r="12" fill="#2563eb"/>
  <text x="771" y="411" font-family="'Inter', 'Segoe UI', system-ui, -apple-system, Helvetica, Arial, sans-serif" font-size="11" fill="#dbeafe" font-weight="700">M</text>
  <rect x="796" y="400" width="90" height="6" rx="3" fill="#94a3b8" opacity="0.3"/>
  <rect x="796" y="410" width="60" height="5" rx="2.5" fill="#94a3b8" opacity="0.15"/>

  <!-- == Card 4: Middle-right == -->
  <g filter="url(#cardShadow)">
    <rect x="1000" y="272" width="240" height="160" rx="12" fill="url(#cardGrad2)"/>
    <rect x="1000" y="272" width="240" height="160" rx="12" fill="none" stroke="url(#cardBorder1)" stroke-width="1"/>
  </g>
  <!-- Heart/like count badge -->
  <rect x="1176" y="288" width="48" height="24" rx="12" fill="#6366f1" opacity="0.15"/>
  <text x="1190" y="304" font-family="'Inter', 'Segoe UI', system-ui, -apple-system, Helvetica, Arial, sans-serif" font-size="11" fill="#818cf8">
    <tspan fill="#ef4444" font-size="12">&#x2665;</tspan> 47
  </text>
  <!-- Quote -->
  <text x="1020" y="314" font-family="Georgia, 'Times New Roman', serif" font-size="32" fill="#6366f1" opacity="0.4">"</text>
  <!-- Text lines -->
  <rect x="1020" y="316" width="200" height="8" rx="4" fill="#94a3b8" opacity="0.22"/>
  <rect x="1020" y="332" width="175" height="8" rx="4" fill="#94a3b8" opacity="0.18"/>
  <rect x="1020" y="348" width="150" height="8" rx="4" fill="#94a3b8" opacity="0.14"/>
  <!-- Stars -->
  <g transform="translate(1020, 370)">
    <polygon points="6,0 7.9,3.8 12,4.5 9,7.5 9.7,12 6,9.9 2.3,12 3,7.5 0,4.5 4.1,3.8" fill="#fbbf24"/>
    <polygon points="20,0 21.9,3.8 26,4.5 23,7.5 23.7,12 20,9.9 16.3,12 17,7.5 14,4.5 18.1,3.8" fill="#fbbf24"/>
    <polygon points="34,0 35.9,3.8 40,4.5 37,7.5 37.7,12 34,9.9 30.3,12 31,7.5 28,4.5 32.1,3.8" fill="#fbbf24"/>
    <polygon points="48,0 49.9,3.8 54,4.5 51,7.5 51.7,12 48,9.9 44.3,12 45,7.5 42,4.5 46.1,3.8" fill="#fbbf24"/>
    <polygon points="62,0 63.9,3.8 68,4.5 65,7.5 65.7,12 62,9.9 58.3,12 59,7.5 56,4.5 60.1,3.8" fill="#fbbf24" opacity="0.3"/>
  </g>
  <!-- Avatar -->
  <circle cx="1036" cy="408" r="12" fill="#059669"/>
  <text x="1031" y="413" font-family="'Inter', 'Segoe UI', system-ui, -apple-system, Helvetica, Arial, sans-serif" font-size="11" fill="#d1fae5" font-weight="700">J</text>
  <rect x="1056" y="402" width="75" height="6" rx="3" fill="#94a3b8" opacity="0.3"/>
  <rect x="1056" y="412" width="50" height="5" rx="2.5" fill="#94a3b8" opacity="0.15"/>

  <!-- == Card 5: Bottom-left == -->
  <g filter="url(#cardShadow)">
    <rect x="740" y="452" width="240" height="148" rx="12" fill="url(#cardGrad2)"/>
    <rect x="740" y="452" width="240" height="148" rx="12" fill="none" stroke="url(#cardBorder2)" stroke-width="1"/>
  </g>
  <!-- Video testimonial indicator -->
  <rect x="756" y="468" width="56" height="22" rx="11" fill="#6366f1" opacity="0.15"/>
  <polygon points="770,475 770,485 780,480" fill="#818cf8" opacity="0.8"/>
  <text x="784" y="483" font-family="'Inter', 'Segoe UI', system-ui, -apple-system, Helvetica, Arial, sans-serif" font-size="9" fill="#818cf8" font-weight="600">VIDEO</text>
  <!-- Text lines -->
  <rect x="760" y="500" width="200" height="8" rx="4" fill="#94a3b8" opacity="0.2"/>
  <rect x="760" y="516" width="160" height="8" rx="4" fill="#94a3b8" opacity="0.16"/>
  <rect x="760" y="532" width="130" height="8" rx="4" fill="#94a3b8" opacity="0.12"/>
  <!-- Stars -->
  <g transform="translate(760, 552)">
    <polygon points="6,0 7.9,3.8 12,4.5 9,7.5 9.7,12 6,9.9 2.3,12 3,7.5 0,4.5 4.1,3.8" fill="#fbbf24"/>
    <polygon points="20,0 21.9,3.8 26,4.5 23,7.5 23.7,12 20,9.9 16.3,12 17,7.5 14,4.5 18.1,3.8" fill="#fbbf24"/>
    <polygon points="34,0 35.9,3.8 40,4.5 37,7.5 37.7,12 34,9.9 30.3,12 31,7.5 28,4.5 32.1,3.8" fill="#fbbf24"/>
    <polygon points="48,0 49.9,3.8 54,4.5 51,7.5 51.7,12 48,9.9 44.3,12 45,7.5 42,4.5 46.1,3.8" fill="#fbbf24"/>
    <polygon points="62,0 63.9,3.8 68,4.5 65,7.5 65.7,12 62,9.9 58.3,12 59,7.5 56,4.5 60.1,3.8" fill="#fbbf24"/>
  </g>
  <!-- Avatar -->
  <circle cx="776" cy="584" r="12" fill="#dc2626"/>
  <text x="772" y="589" font-family="'Inter', 'Segoe UI', system-ui, -apple-system, Helvetica, Arial, sans-serif" font-size="11" fill="#fecaca" font-weight="700">K</text>
  <rect x="796" y="578" width="85" height="6" rx="3" fill="#94a3b8" opacity="0.3"/>
  <rect x="796" y="588" width="55" height="5" rx="2.5" fill="#94a3b8" opacity="0.15"/>

  <!-- == Card 6: Bottom-right == -->
  <g filter="url(#cardShadow)">
    <rect x="1000" y="452" width="240" height="148" rx="12" fill="url(#cardGrad1)"/>
    <rect x="1000" y="452" width="240" height="148" rx="12" fill="none" stroke="url(#cardBorder3)" stroke-width="1"/>
  </g>
  <!-- NPS Score badge -->
  <rect x="1160" y="468" width="64" height="22" rx="11" fill="#059669" opacity="0.2"/>
  <text x="1172" y="483" font-family="'Inter', 'Segoe UI', system-ui, -apple-system, Helvetica, Arial, sans-serif" font-size="10" fill="#34d399" font-weight="600">NPS 10</text>
  <!-- Quote mark -->
  <text x="1020" y="498" font-family="Georgia, 'Times New Roman', serif" font-size="28" fill="#6366f1" opacity="0.35">"</text>
  <!-- Text -->
  <text x="1020" y="506" font-family="'Inter', 'Segoe UI', system-ui, -apple-system, Helvetica, Arial, sans-serif" font-size="11" fill="#cbd5e1" opacity="0.6" font-style="italic">Best investment we</text>
  <text x="1020" y="522" font-family="'Inter', 'Segoe UI', system-ui, -apple-system, Helvetica, Arial, sans-serif" font-size="11" fill="#cbd5e1" opacity="0.6" font-style="italic">made this year.</text>
  <!-- Stars -->
  <g transform="translate(1020, 544)">
    <polygon points="6,0 7.9,3.8 12,4.5 9,7.5 9.7,12 6,9.9 2.3,12 3,7.5 0,4.5 4.1,3.8" fill="#fbbf24"/>
    <polygon points="20,0 21.9,3.8 26,4.5 23,7.5 23.7,12 20,9.9 16.3,12 17,7.5 14,4.5 18.1,3.8" fill="#fbbf24"/>
    <polygon points="34,0 35.9,3.8 40,4.5 37,7.5 37.7,12 34,9.9 30.3,12 31,7.5 28,4.5 32.1,3.8" fill="#fbbf24"/>
    <polygon points="48,0 49.9,3.8 54,4.5 51,7.5 51.7,12 48,9.9 44.3,12 45,7.5 42,4.5 46.1,3.8" fill="#fbbf24"/>
    <polygon points="62,0 63.9,3.8 68,4.5 65,7.5 65.7,12 62,9.9 58.3,12 59,7.5 56,4.5 60.1,3.8" fill="#fbbf24"/>
  </g>
  <!-- Avatar -->
  <circle cx="1036" cy="580" r="12" fill="#d97706"/>
  <text x="1032" y="585" font-family="'Inter', 'Segoe UI', system-ui, -apple-system, Helvetica, Arial, sans-serif" font-size="11" fill="#fef3c7" font-weight="700">R</text>
  <rect x="1056" y="574" width="70" height="6" rx="3" fill="#94a3b8" opacity="0.3"/>
  <rect x="1056" y="584" width="45" height="5" rx="2.5" fill="#94a3b8" opacity="0.15"/>

  <!-- ========== DECORATIVE SPARKLE ELEMENTS ========== -->

  <!-- Sparkle dots scattered -->
  <circle cx="660" cy="100" r="2" fill="#6366f1" opacity="0.5"/>
  <circle cx="680" cy="540" r="1.5" fill="#8b5cf6" opacity="0.4"/>
  <circle cx="700" cy="320" r="2.5" fill="#6366f1" opacity="0.3"/>
  <circle cx="440" cy="150" r="1.5" fill="#818cf8" opacity="0.4"/>
  <circle cx="580" cy="580" r="2" fill="#a78bfa" opacity="0.3"/>
  <circle cx="520" cy="80" r="1.5" fill="#6366f1" opacity="0.35"/>

  <!-- 4-point sparkle decorations -->
  <!-- Sparkle near brand -->
  <g transform="translate(450, 200)" opacity="0.3">
    <line x1="0" y1="-8" x2="0" y2="8" stroke="#818cf8" stroke-width="1.5" stroke-linecap="round"/>
    <line x1="-8" y1="0" x2="8" y2="0" stroke="#818cf8" stroke-width="1.5" stroke-linecap="round"/>
  </g>
  <!-- Sparkle top-right area -->
  <g transform="translate(690, 60)" opacity="0.25">
    <line x1="0" y1="-6" x2="0" y2="6" stroke="#a78bfa" stroke-width="1.5" stroke-linecap="round"/>
    <line x1="-6" y1="0" x2="6" y2="0" stroke="#a78bfa" stroke-width="1.5" stroke-linecap="round"/>
  </g>
  <!-- Sparkle bottom area -->
  <g transform="translate(640, 560)" opacity="0.2">
    <line x1="0" y1="-10" x2="0" y2="10" stroke="#6366f1" stroke-width="1.5" stroke-linecap="round"/>
    <line x1="-10" y1="0" x2="10" y2="0" stroke="#6366f1" stroke-width="1.5" stroke-linecap="round"/>
  </g>

  <!-- ========== CONNECTING VISUAL: fading gradient overlay on right edge ========== -->

  <!-- Fade cards into edge -->
  <rect x="1220" y="0" width="60" height="640" fill="url(#bg)" opacity="0.6"/>

  <!-- ========== BOTTOM BORDER ACCENT ========== -->
  <rect x="0" y="636" width="1280" height="4" fill="url(#accent1)" opacity="0.6"/>

  <!-- URL in corner -->
  <text x="1200" y="626" font-family="'Inter', 'Segoe UI', system-ui, -apple-system, Helvetica, Arial, sans-serif" font-size="11" fill="#475569" text-anchor="end" opacity="0.6">praised.io</text>
</svg>